#!OML:ASF F:\VICON\USERDATA\INSTALL\Justin_Nancy\Justin_Nancy.ASF
:FULLY-SPECIFIED
:DEGREES
1
root -11.6351 16.6995 -31.3945 3.61372 -5.3151 2.65755
lowerback 11.9046 -0.608546 -6.19141
upperback -1.20152 -1.38319 4.2954
thorax -7.74973 -0.303134 8.42663
lowerneck -14.4657 -1.6724 -13.7041
upperneck 14.3143 -0.252943 5.63686
head 6.78867 -0.382148 4.04539
rclavicle 1.70955e-014 -1.74931e-014
rhumerus -44.6804 22.7676 -87.8456
rradius 116.298
rwrist 5.24
rhand -16.7607 31.4775
rfingers 7.12502
rthumb 9.46626 1.71009
lclavicle 1.70955e-014 -1.74931e-014
lhumerus -55.2829 3.19201 91.0943
lradius 99.4669
lwrist 19.3062
lhand -21.4519 8.945
lfingers 7.12502
lthumb 4.93806 38.8675
rfemur -14.2627 1.54396 26.1773
rtibia 45.8075
rfoot -24.3917 -14.6359
rtoes -5.50797
lfemur -28.8312 3.01069 -17.5454
ltibia 85.7992
lfoot 3.87002 -8.78837
ltoes -2.89142
2
root -11.6399 16.7327 -31.0473 3.78109 -5.411 2.13594
lowerback 11.7129 -0.600606 -5.80435
upperback -1.39163 -1.28671 4.56574
thorax -7.86673 -0.254343 8.48277
lowerneck -13.7953 -1.52538 -13.8685
upperneck 14.1259 -0.0953238 5.50207
head 6.59874 -0.327626 4.03521
rclavicle 4.17448e-015 -4.77083e-014
rhumerus -44.4088 23.4781 -87.7951
rradius 117.053
rwrist 4.33876
rhand -16.9691 30.6603
rfingers 7.12502
rthumb 9.26513 0.883902
lclavicle 4.17448e-015 -4.77083e-014
lhumerus -56.5898 4.0407 91.1143
lradius 100.075
lwrist 19.5657
lhand -21.1405 8.41757
lfingers 7.12502
lthumb 5.23871 38.3328
rfemur -12.4379 1.78092 26.6594
rtibia 44.7332
rfoot -24.0638 -14.4956
rtoes -6.23293
lfemur -30.7647 3.43755 -17.2729
ltibia 85.1745
lfoot -1.5304 -7.2642
ltoes -20.6639
3
root -11.6464 16.7764 -30.7069 4.08081 -5.26083 1.75782
lowerback 11.744 -0.543953 -5.57749
upperback -1.90074 -1.16032 4.76656
thorax -8.4653 -0.151552 8.57558
lowerneck -12.6307 -1.47521 -14.2753
upperneck 14.1148 -0.181669 5.85568
head 6.40429 -0.373979 4.20424
rclavicle 1.09332e-015 2.22639e-014
rhumerus -44.5942 23.8201 -87.8831
rradius 117.726
rwrist 3.33581
rhand -17.6835 30.838
rfingers 7.12502
rthumb 8.57578 1.03216
lclavicle 1.09332e-015 2.22639e-014
lhumerus -58.2185 4.56378 91.2466
lradius 100.632
lwrist 19.9032
lhand -20.6182 8.14064
lfingers 7.12502
lthumb 5.74297 38.0428
rfemur -10.9358 1.67544 27.0246
rtibia 43.7054
rfoot -22.8377 -14.392
rtoes -7.38037
lfemur -32.8058 3.61304 -17.2401
ltibia 84.0982
lfoot -3.72833 -6.21245
ltoes -26.1027
4
root -11.6517 16.8439 -30.3564 4.23661 -5.3259 1.47817
lowerback 11.2137 1.07762 -3.3214
upperback -0.497923 1.20336 3.06172
thorax -6.97479 0.770677 4.92461
lowerneck -17.3679 -3.73943 -12.1157
upperneck 15.0624 -3.20818 6.46788
head 7.81522 -1.61038 3.75433
rclavicle 1.03368e-014 2.38542e-015
rhumerus -40.7668 17.9307 -87.1625
rradius 118.099
rwrist 2.66573
rhand -18.4107 31.2775
rfingers 7.12502
rthumb 7.87393 1.44413
lclavicle 1.03368e-014 2.38542e-015
lhumerus -55.1533 -1.30106 91.1824
lradius 100.367
lwrist 20.6974
lhand -20.0049 7.86268
lfingers 7.12502
lthumb 6.33505 37.7479
rfemur -9.34451 1.53408 27.2574
rtibia 42.5656
rfoot -20.656 -14.4243
rtoes -11.2771
lfemur -34.4829 3.8231 -17.4058
ltibia 82.704
lfoot -1.28002 -7.03861
ltoes -13.3442
5
root -11.6486 16.9083 -29.993 4.24248 -5.39662 1.0718
lowerback 11.3334 0.180877 -4.65805
upperback -1.62396 -0.0401698 4.79228
thorax -8.13185 0.32789 7.83543
lowerneck -13.2652 -2.25967 -14.2197
upperneck 13.7927 -1.15745 5.86088
head 6.51317 -0.823965 4.1035
rclavicle -2.18663e-015 1.90833e-014
rhumerus -42.6812 22.8778 -86.9092
rradius 118.974
rwrist 1.01441
rhand -18.679 30.9467
rfingers 7.12502
rthumb 7.61504 1.10378
lclavicle -2.18663e-015 1.90833e-014
lhumerus -58.8375 3.92376 91.949
lradius 101.245
lwrist 20.7205
lhand -19.7863 8.05382
lfingers 7.12502
lthumb 6.54614 37.9326
rfemur -7.17146 1.94031 27.4235
rtibia 41.3414
rfoot -20.1697 -12.7782
rtoes -9.6753
lfemur -35.8436 3.85315 -17.483
ltibia 81.0035
lfoot -0.686554 -6.92482
ltoes -7.72873
